<svg width="32" height="32" viewBox="0 0 32 32" fill="none" xmlns="http://www.w3.org/2000/svg"><path d="M16 0C7.175 0 0 7.175 0 16s7.175 16 16 16 16-7.175 16-16S24.825 0 16 0z" fill="#419FD9"/><path fill-rule="evenodd" clip-rule="evenodd" d="M19.557 23.923c1.119.49 1.538-.536 1.538-.536l2.959-14.865c-.023-1.001-1.375-.396-1.375-.396l-16.565 6.5s-.792.28-.722.77c.07.489.699.722.699.722l4.17 1.398s1.258 4.124 1.514 4.916c.233.769.443.792.443.792.233.093.443-.07.443-.07l2.702-2.446 4.194 3.215zm.722-12.768s.583-.35.56 0c0 0 .093.047-.21.373-.28.28-6.873 6.197-7.759 6.99a.245.245 0 0 0-.116.21l-.257 2.19c-.046.232-.349.256-.419.046l-1.095-3.588a.343.343 0 0 1 .14-.396l9.156-5.825z" fill="#fff"/></svg>