<svg width="32" height="32" viewBox="0 0 32 32" fill="none" xmlns="http://www.w3.org/2000/svg"><path d="M16 0C7.175 0 0 7.175 0 16s7.175 16 16 16 16-7.175 16-16S24.825 0 16 0z" fill="url(#a)"/><path d="M16 6.01c-4.096 0-7.985-.364-9.47 3.445-.615 1.574-.525 3.617-.525 6.544 0 2.567-.083 4.98.524 6.542 1.482 3.812 5.403 3.447 9.469 3.447 3.922 0 7.966.408 9.47-3.447.615-1.59.525-3.603.525-6.542 0-3.903.215-6.422-1.679-8.313-1.918-1.916-4.511-1.676-8.318-1.676H16zm-.895 1.8c8.543-.014 9.63-.963 9.03 12.222-.212 4.663-3.766 4.15-8.134 4.15-7.964 0-8.193-.227-8.193-8.188 0-8.054.632-8.18 7.297-8.187v.003zm6.231 1.658a1.199 1.199 0 1 0 0 2.397 1.199 1.199 0 0 0 0-2.397zM16 10.868a5.131 5.131 0 0 0-5.132 5.13A5.13 5.13 0 0 0 16 21.129a5.13 5.13 0 1 0 0-10.26zm0 1.8c4.405 0 4.411 6.66 0 6.66-4.404 0-4.41-6.66 0-6.66z" fill="#fff"/><defs><linearGradient id="a" x1="2.149" y1="29.915" x2="31.799" y2="4.248" gradientUnits="userSpaceOnUse"><stop stop-color="#FD5"/><stop offset=".5" stop-color="#FF543E"/><stop offset="1" stop-color="#C837AB"/></linearGradient></defs></svg>