<svg width="32" height="32" viewBox="0 0 32 32" fill="none" xmlns="http://www.w3.org/2000/svg"><path d="M16 0C7.168 0 0 7.168 0 16s7.168 16 16 16 16-7.168 16-16S24.832 0 16 0z" fill="#5181B8"/><path fill-rule="evenodd" clip-rule="evenodd" d="M26.177 11.023c.149-.494 0-.858-.706-.858h-2.334c-.593 0-.867.314-1.015.66 0 0-1.187 2.893-2.868 4.772-.544.544-.791.717-1.088.717-.149 0-.363-.173-.363-.667v-4.624c0-.593-.172-.858-.667-.858h-3.667c-.371 0-.594.276-.594.537 0 .562.84.692.927 2.274v3.437c0 .754-.136.89-.433.89-.791 0-2.716-2.905-3.857-6.23-.224-.647-.448-.908-1.045-.908H6.133c-.666 0-.8.314-.8.66 0 .619.792 3.685 3.684 7.74 1.93 2.769 4.646 4.27 7.119 4.27 1.483 0 1.667-.334 1.667-.908v-2.093c0-.667.14-.8.61-.8.346 0 .94.173 2.325 1.509 1.582 1.582 1.843 2.292 2.733 2.292h2.334c.666 0 1-.334.808-.992-.21-.655-.966-1.607-1.969-2.735-.544-.642-1.36-1.335-1.607-1.68-.346-.446-.247-.644 0-1.04 0 0 2.843-4.005 3.14-5.365z" fill="#fff"/></svg>