<svg width="32" height="32" viewBox="0 0 32 32" fill="none" xmlns="http://www.w3.org/2000/svg"><path d="M16 0C7.175 0 0 7.175 0 16s7.175 16 16 16 16-7.175 16-16S24.825 0 16 0z" fill="#22242B"/><path fill-rule="evenodd" clip-rule="evenodd" d="M14.343 13.546v-.71a5.501 5.501 0 0 0-.743-.053 5.523 5.523 0 0 0-5.517 5.516c0 1.866.933 3.518 2.355 4.516a5.494 5.494 0 0 1-1.481-3.755 5.522 5.522 0 0 1 5.386-5.514z" fill="#00F2EA"/><path fill-rule="evenodd" clip-rule="evenodd" d="M14.473 21.579a2.52 2.52 0 0 0 2.514-2.425l.005-12.01h2.194a4.163 4.163 0 0 1-.07-.761h-2.997l-.005 12.01a2.52 2.52 0 0 1-2.515 2.425c-.407 0-.808-.1-1.168-.29a2.515 2.515 0 0 0 2.042 1.05zm8.812-10.36v-.667a4.143 4.143 0 0 1-2.27-.675 4.171 4.171 0 0 0 2.27 1.343" fill="#00F2EA"/><path fill-rule="evenodd" clip-rule="evenodd" d="M21.015 9.877a4.15 4.15 0 0 1-1.026-2.733h-.803a4.177 4.177 0 0 0 1.829 2.733zM13.6 15.779a2.522 2.522 0 0 0-2.52 2.52 2.522 2.522 0 0 0 1.35 2.23 2.503 2.503 0 0 1-.476-1.47 2.521 2.521 0 0 1 2.519-2.52c.26 0 .508.044.743.117v-3.06a5.488 5.488 0 0 0-.743-.053c-.044 0-.087.002-.13.003v2.35a2.474 2.474 0 0 0-.743-.117z" fill="#FF004F"/><path fill-rule="evenodd" clip-rule="evenodd" d="M23.285 11.22v2.33a7.127 7.127 0 0 1-4.17-1.342v6.09a5.522 5.522 0 0 1-5.515 5.517 5.483 5.483 0 0 1-3.162-1 5.501 5.501 0 0 0 4.035 1.76 5.522 5.522 0 0 0 5.516-5.515v-6.09a7.128 7.128 0 0 0 4.17 1.34v-2.998c-.3 0-.592-.032-.874-.092" fill="#FF004F"/><path fill-rule="evenodd" clip-rule="evenodd" d="M19.115 18.299v-6.09a7.126 7.126 0 0 0 4.17 1.34v-2.33a4.172 4.172 0 0 1-2.27-1.342 4.178 4.178 0 0 1-1.829-2.733h-2.194l-.005 12.01a2.52 2.52 0 0 1-2.514 2.425 2.517 2.517 0 0 1-2.043-1.05 2.522 2.522 0 0 1-1.35-2.23 2.523 2.523 0 0 1 2.52-2.52c.258 0 .507.043.743.117v-2.35a5.522 5.522 0 0 0-5.386 5.513c0 1.45.563 2.77 1.481 3.756.925.652 2.03 1 3.161 1a5.522 5.522 0 0 0 5.516-5.516z" fill="#fff"/></svg>