<svg width="32" height="32" viewBox="0 0 32 32" fill="none" xmlns="http://www.w3.org/2000/svg"><path d="M16 0C7.168 0 0 7.168 0 16s7.168 16 16 16 16-7.168 16-16S24.832 0 16 0z" fill="#00C3FF"/><path d="M25 10.74c-.642.336-1.61.491-1.931.536a5.037 5.037 0 0 0-.008-.045c1.09-.675 1.425-1.945 1.425-1.945a7.19 7.19 0 0 1-1.72.719 4.961 4.961 0 0 1-.606.124 3.743 3.743 0 0 0-6.348 3.362c-1-.014-4.611-.321-7.604-3.797 0 0-1.666 2.907 1.135 4.893 0 0-1.135-.035-1.738-.46 0 0-.177 2.801 3.05 3.687 0 0-1.134.284-1.702.036 0 0 .567 2.411 3.404 2.589 0 0-2.034 1.863-5.357 1.595a10.525 10.525 0 0 0 5.649 1.633c5.84 0 10.575-4.735 10.575-10.575 0-.073 0-.146-.002-.219.002-.043.002-.086.002-.13v-.09C24.303 11.932 25 10.74 25 10.74z" fill="#fff"/></svg>