<svg width="168" height="84" viewBox="0 0 168 84" fill="none" xmlns="http://www.w3.org/2000/svg"><mask id="a" maskUnits="userSpaceOnUse" x="0" y="0" width="168" height="84"><rect width="167.192" height="84" rx="4" transform="matrix(1 0 0 -1 .154 84)" fill="#C4C4C4"/></mask><g mask="url(#a)"><path d="M130.223 45.481c10.094 0 15.141 0 19.298-2.4 4.156-2.399 6.679-6.77 11.726-15.511l22.946-39.742c5.047-8.742 7.57-13.113 7.57-17.912 0-4.8-2.523-9.17-7.57-17.912l-22.946-39.742c-5.047-8.742-7.57-13.113-11.726-15.512-4.157-2.4-9.204-2.4-19.298-2.4h-45.89c-10.094 0-15.141 0-19.297 2.4-4.157 2.399-6.68 6.77-11.727 15.512L30.364-47.996c-5.047 8.742-7.57 13.112-7.57 17.912 0 4.8 2.523 9.17 7.57 17.912L53.308 27.57c5.047 8.741 7.57 13.112 11.727 15.512 4.156 2.4 9.203 2.4 19.297 2.4h45.89z" fill="url(#b)"/><path d="M136.531 47.244c13.789 23.882 20.683 35.823 31.024 35.823 10.342 0 17.236-11.94 31.025-35.823l13.517-23.413c13.789-23.883 20.683-35.824 15.512-44.78-5.17-8.956-18.959-8.956-46.536-8.956h-27.035c-27.577 0-41.366 0-46.536 8.956-5.171 8.956 1.723 20.897 15.512 44.78l13.517 23.413z" fill="url(#c)"/></g><defs><linearGradient id="b" x1="84.063" y1="80.826" x2="124.647" y2="-142.095" gradientUnits="userSpaceOnUse"><stop stop-color="#E7ECF4"/><stop offset="1" stop-color="#fff"/></linearGradient><linearGradient id="c" x1="229.326" y1="-29.905" x2="104.927" y2="-28.952" gradientUnits="userSpaceOnUse"><stop stop-color="#0E8BFF"/><stop offset="1" stop-color="#64BEFF"/></linearGradient></defs></svg>