<svg width="106" height="24" viewBox="0 0 106 24" fill="none" xmlns="http://www.w3.org/2000/svg"><path d="M8.241 1.047C9.45.349 10.053 0 10.716 0s1.267.349 2.475 1.047l5.766 3.332C20.165 5.076 20.77 5.425 21.1 6c.332.575.332 1.273.332 2.668v6.664c0 1.395 0 2.093-.331 2.668-.332.575-.936.924-2.144 1.621l-5.766 3.332C11.983 23.651 11.379 24 10.716 24s-1.267-.349-2.475-1.047l-5.766-3.332C1.267 18.924.663 18.575.332 18 0 17.425 0 16.727 0 15.332V8.668C0 7.273 0 6.575.332 6c.331-.575.935-.924 2.143-1.621L8.24 1.047z" fill="url(#a)"/><path d="M10.716 19.407a7.407 7.407 0 1 0 0-14.814 7.407 7.407 0 0 0 0 14.814z" fill="url(#b)"/><path d="M10.716 15.704a3.704 3.704 0 1 0 0-7.408 3.704 3.704 0 0 0 0 7.408z" fill="#fff"/><path fill-rule="evenodd" clip-rule="evenodd" d="M53.318 4.575a7.416 7.416 0 0 0-7.417 7.417 7.416 7.416 0 0 0 7.417 7.416 7.416 7.416 0 0 0 7.416-7.416 7.416 7.416 0 0 0-7.416-7.417zm0 12.122a4.706 4.706 0 1 1 .001-9.412 4.706 4.706 0 0 1-.001 9.412zM65.065 19.119c-.063-.063-.063-.168-.063-.374V5.301c0-.205 0-.31.063-.373s.168-.063.374-.063h2.354c.13 0 .193 0 .244.029.05.03.084.088.142.202l3.53 6.723c.013.021.034.038.06.038.024 0 .05-.012.058-.037l3.488-6.72c.059-.114.088-.172.142-.206.05-.034.118-.034.248-.034h2.233c.206 0 .31 0 .374.063.063.063.063.168.063.374v13.444c0 .206 0 .31-.063.373s-.168.063-.374.063h-1.691c-.206 0-.307 0-.374-.063-.063-.063-.063-.168-.063-.373V8.953c0-.03-.02-.05-.05-.05a.052.052 0 0 0-.047.029l-1.095 2.25-2.548 4.705c-.168.31-.251.47-.382.47-.13 0-.214-.155-.382-.47l-2.547-4.705-1.096-2.25a.051.051 0 0 0-.046-.03c-.03 0-.05.021-.05.05v9.789c0 .206 0 .31-.063.373s-.168.063-.374.063H65.44c-.206.005-.307.005-.374-.058zM87.44 19.169c.207 0 .307 0 .374-.063.064-.063.064-.168.064-.374V5.29c0-.206 0-.311-.064-.374-.063-.063-.167-.063-.373-.063h-1.834c-.206 0-.307 0-.374.063s-.063.168-.063.374v13.443c0 .206 0 .311.063.374s.168.063.374.063h1.834zM105.782 18.585l-4.466-13.44c-.046-.142-.071-.217-.13-.255-.058-.042-.134-.042-.285-.042h-2.737c-.15 0-.226 0-.285.042-.059.042-.08.113-.13.256L93.24 18.59c-.088.264-.13.394-.067.482.067.093.205.093.478.093h1.822c.155 0 .23 0 .29-.042.058-.042.08-.118.126-.265l.935-3.034c.047-.147.068-.223.126-.265.06-.042.135-.042.29-.042h4.445c.155 0 .231 0 .289.042.059.042.08.118.126.265l.957 3.039c.047.146.072.222.126.264.059.042.135.042.29.042h1.884c.277 0 .416 0 .479-.093.075-.096.033-.226-.055-.49zm-4.545-5.481c-.067.088-.202.088-.475.088h-2.585c-.273 0-.407 0-.47-.088-.067-.088-.025-.218.054-.479l1.633-5.271a.072.072 0 0 1 .067-.05c.03 0 .06.02.067.05l1.654 5.271c.08.26.122.39.055.479zM38.618 19.165c-.05-.03-.08-.08-.142-.185l-4.18-7.127-1.466-2.95c-.008-.013-.02-.021-.033-.021a.038.038 0 0 0-.038.037v9.843c0 .206 0 .31-.063.373s-.168.063-.373.063H30.63c-.206 0-.31 0-.374-.063-.063-.063-.063-.167-.063-.373V5.318c0-.206 0-.31.063-.374.063-.062.168-.062.374-.062h2.288c.121 0 .184 0 .235.029.05.03.08.08.142.185l4.18 7.127 1.466 2.95c.008.013.02.021.033.021a.038.038 0 0 0 .038-.038V5.314c0-.206 0-.31.063-.374.063-.063.168-.063.373-.063h1.692c.206 0 .31 0 .373.063s.063.168.063.374v13.444c0 .205 0 .31-.063.373s-.167.063-.373.063h-2.288c-.126 0-.184 0-.235-.03z" fill="#22242B"/><defs><radialGradient id="a" cx="0" cy="0" r="1" gradientUnits="userSpaceOnUse" gradientTransform="matrix(-21.49733 -24.07726 19.51397 -17.423 21.465 24.077)"><stop stop-color="#22242B"/><stop offset="1" stop-color="#343845"/></radialGradient><linearGradient id="b" x1="18.123" y1="19.407" x2="3.309" y2="4.593" gradientUnits="userSpaceOnUse"><stop offset=".151" stop-color="#0E8BFF"/><stop offset=".852" stop-color="#64BEFF"/></linearGradient></defs></svg>