<svg width="15" height="13" viewBox="0 0 15 13" fill="none" xmlns="http://www.w3.org/2000/svg"><path d="M8.956 10.718L3.643 8.42l-1.135 1.954 5.978 1.15.463-.804.007-.002zm-.739 2.28h1.768l1.552-2.688L13.094 13h1.768l-3.32-5.749L8.217 13v-.002zm-5.966-2.166L.996 13h6.64l.589-1.019-5.977-1.15h.003zm8.997-4.083L7.928.996l-1.26 2.176 3.984 4.601.59-1.02.005-.004zm-.853 1.478L6.408 3.629 5.274 5.582l4.648 3.452.465-.803.008-.004zm-.716 1.238L5.03 6.015 3.896 7.981l5.314 2.3.47-.816H9.68z" fill="#F8AD00"/></svg>