<svg width="24" height="24" viewBox="0 0 24 24" fill="none" xmlns="http://www.w3.org/2000/svg"><path d="M12 0C5.376 0 0 5.376 0 12s5.376 12 12 12 12-5.376 12-12S18.624 0 12 0z" fill="#9199A5"/><path fill-rule="evenodd" clip-rule="evenodd" d="M19.633 8.267c.111-.37 0-.643-.53-.643h-1.75c-.445 0-.65.235-.761.495 0 0-.89 2.17-2.152 3.58-.407.407-.593.537-.816.537-.11 0-.272-.13-.272-.5V8.266c0-.445-.129-.643-.5-.643h-2.75c-.279 0-.446.207-.446.402 0 .422.63.52.695 1.706v2.578c0 .565-.102.668-.324.668-.593 0-2.037-2.18-2.893-4.673-.168-.485-.336-.681-.783-.681H4.6c-.501 0-.601.235-.601.495 0 .464.594 2.763 2.763 5.805 1.447 2.076 3.485 3.202 5.339 3.202 1.113 0 1.25-.25 1.25-.68v-1.57c0-.5.106-.6.458-.6.26 0 .705.13 1.743 1.131 1.187 1.187 1.383 1.72 2.05 1.72h1.75c.5 0 .75-.25.606-.744-.157-.492-.724-1.206-1.476-2.051-.408-.483-1.02-1.002-1.205-1.262-.26-.333-.186-.482 0-.778 0 0 2.132-3.004 2.355-4.024z" fill="#fff"/></svg>